# xmcd
#
# Track frame offsets: 
#        150
#        11550
#        28598
#        42792
#        58372
#        76642
#        92896
#        109522
#
# Disc length: 1701 seconds
#
# Revision: 1
# Processed by: cddbd v1.5PL3 Copyright (c) Steve Scherf et al.
# Submitted via: ExactAudioCopy v0.95a3
#
DISCID=5706a308
DTITLE=Jameson Clark - Workin' On A Groove
DYEAR=2002
DGENRE=Country
TTITLE0=Waitin' On The Whiskey
TTITLE1=You Da Man
TTITLE2=I'm Gonna Burn For This
TTITLE3=All Afternoon
TTITLE4=I Want It All
TTITLE5=I Like Blondes
TTITLE6=Workin' On A Groove
TTITLE7=When I'm Done
EXTD=
EXTT0=
EXTT1=
EXTT2=
EXTT3=
EXTT4=
EXTT5=
EXTT6=
EXTT7=
PLAYORDER=
